# xmcd
#
# Track frame offsets: 
#        150
#        21020
#        44067
#        65122
#        93730
#        115312
#        137437
#        163377
#        197945
#        225805
#        243535
#
# Disc length: 3522 seconds
#
# Revision: 1
# Processed by: cddbd v1.5.2PL0 Copyright (c) Steve Scherf et al.
# Submitted via: ExactAudioCopy v0.99pb4
#
DISCID=9e0dc00b
DTITLE=Various Artist - Blue Note Plays Sting
DYEAR=2005
DGENRE=Jazz
TTITLE0=Cassandra Wilson - Fragile
TTITLE1=Bob Belden and Tim Hagans - Roxanne
TTITLE2=Bob Belden, Dianne Reeves and John Scofield - Wrapped Around You
TTITLE2=r Finger
TTITLE3=Bob Belden and Tim Hagans - Straight To The Heart
TTITLE4=Bob Belden, Mark Ledford and Kirk Whalum - Every Breath You Take
TTITLE5=Bob Belden, Phil Perry and Bobby Watson - Sister Moon
TTITLE6=Bob Belden and Rick Margitza - They Dance Alone
TTITLE7=Bob Belden and Jimi Tunnell - I Burn For You
TTITLE8=Flavio Boltro - Tea On The Sahara
TTITLE9=Kurt Elling - Oh My God [Live]
TTITLE10=Freddie Hubbard - Fragile
EXTD=YEAR: 2005
EXTT0=
EXTT1=
EXTT2=
EXTT3=
EXTT4=
EXTT5=
EXTT6=
EXTT7=
EXTT8=
EXTT9=
EXTT10=
PLAYORDER=
